<svg xmlns="http://www.w3.org/2000/svg" xmlns:xlink="http://www.w3.org/1999/xlink" width="500" zoomAndPan="magnify" viewBox="0 0 375 374.999991" height="500" preserveAspectRatio="xMidYMid meet" version="1.0"><path fill="#ffffff" d="M 87.050781 0 C 83.285156 0 80.355469 2.949219 80.355469 6.695312 C 80.355469 17.871094 71.441406 26.785156 60.265625 26.785156 C 51.210938 26.65625 51.210938 40.308594 60.265625 40.179688 C 71.441406 40.179688 80.355469 49.09375 80.355469 60.269531 C 80.226562 69.324219 93.875 69.324219 93.75 60.269531 C 93.75 49.09375 102.664062 40.179688 113.835938 40.179688 C 122.894531 40.304688 122.894531 26.65625 113.835938 26.785156 C 102.664062 26.785156 93.75 17.871094 93.75 6.695312 C 93.75 2.894531 90.816406 0 87.050781 0 Z M 249.847656 0 C 217.785156 0 185.722656 12.238281 161.300781 36.699219 C 117.367188 80.710938 113.019531 149.464844 148.132812 198.445312 L 113.929688 232.738281 C 109.742188 230.261719 104.960938 229.011719 100.222656 229.011719 C 93.355469 229.011719 86.480469 231.613281 81.285156 236.820312 L 9.992188 308.230469 C 3.375 314.859375 0 323.773438 0 332.335938 C 0 340.902344 3.410156 349.703125 9.992188 356.296875 L 18.6875 365.007812 C 25.285156 371.617188 34.039062 375 42.6875 375 C 51.335938 375 60.089844 371.617188 66.6875 365.007812 L 137.980469 293.582031 C 146.6875 284.863281 148.101562 271.449219 142.230469 261.210938 L 176.421875 226.960938 C 225.347656 262.484375 294.308594 258.207031 338.378906 214.0625 C 363.082031 189.316406 375 157.457031 375 124.96875 C 375 93.183594 362.511719 60.875 338.378906 36.699219 C 313.960938 12.238281 281.90625 0 249.847656 0 Z M 249.847656 13.3125 C 278.445312 13.3125 307.046875 24.269531 328.910156 46.167969 C 372.632812 89.96875 372.632812 160.792969 328.910156 204.59375 C 285.183594 248.394531 214.507812 248.394531 170.785156 204.59375 C 127.058594 160.792969 127.058594 89.96875 170.785156 46.167969 C 192.644531 24.269531 221.246094 13.3125 249.847656 13.3125 Z M 87.050781 26.785156 C 89.019531 29.433594 91.101562 31.511719 93.75 33.480469 C 91.101562 35.453125 89.019531 37.53125 87.050781 40.179688 C 85.082031 37.53125 83.003906 35.453125 80.355469 33.480469 C 83.003906 31.511719 85.082031 29.433594 87.050781 26.785156 Z M 249.847656 26.8125 C 224.632812 26.8125 199.421875 36.421875 180.226562 55.652344 C 141.835938 94.109375 141.835938 156.65625 180.226562 195.113281 C 218.617188 233.570312 281.074219 233.570312 319.464844 195.113281 C 357.855469 156.65625 357.855469 94.109375 319.464844 55.652344 C 300.269531 36.421875 275.058594 26.8125 249.847656 26.8125 Z M 249.847656 40.113281 C 271.597656 40.113281 293.34375 48.453125 309.984375 65.121094 C 343.257812 98.453125 343.257812 152.308594 309.984375 185.644531 C 276.707031 218.976562 222.984375 218.976562 189.710938 185.644531 C 156.433594 152.308594 156.433594 98.453125 189.710938 65.121094 C 206.347656 48.453125 228.09375 40.113281 249.847656 40.113281 Z M 249.847656 53.53125 C 231.457031 53.53125 213.074219 60.539062 199.085938 74.550781 C 192.230469 80.859375 202.257812 90.871094 208.554688 84.007812 C 231.414062 61.105469 268.261719 61.105469 291.125 84.007812 C 297.425781 90.589844 307.171875 80.871094 300.605469 74.550781 C 286.617188 60.539062 268.234375 53.53125 249.847656 53.53125 Z M 60.160156 120.445312 C 56.46875 120.503906 53.519531 123.539062 53.570312 127.234375 C 53.570312 138.40625 44.65625 147.320312 33.480469 147.320312 C 24.425781 147.195312 24.425781 160.84375 33.480469 160.714844 C 44.65625 160.714844 53.570312 169.628906 53.570312 180.804688 C 53.441406 189.859375 67.089844 189.859375 66.960938 180.804688 C 66.960938 169.628906 75.878906 160.714844 87.050781 160.714844 C 96.109375 160.84375 96.109375 147.195312 87.050781 147.320312 C 75.878906 147.320312 66.960938 138.40625 66.960938 127.234375 C 67.03125 123.457031 63.9375 120.386719 60.160156 120.445312 Z M 60.269531 147.320312 C 62.238281 149.96875 64.320312 152.050781 66.964844 154.019531 C 64.320312 155.988281 62.238281 158.066406 60.269531 160.714844 C 58.300781 158.066406 56.21875 155.988281 53.574219 154.019531 C 56.21875 152.050781 58.300781 149.96875 60.269531 147.320312 Z M 156.570312 209.003906 C 158.113281 210.730469 159.648438 212.40625 161.304688 214.0625 C 162.835938 215.597656 164.371094 217.019531 165.960938 218.457031 L 133.40625 251.089844 L 123.976562 241.648438 Z M 100.226562 242.3125 C 103.613281 242.3125 107 243.628906 109.628906 246.238281 L 109.695312 246.277344 L 128.53125 265.152344 L 128.53125 265.179688 C 133.796875 270.476562 133.796875 278.839844 128.53125 284.128906 L 74.132812 338.617188 L 36.375 300.777344 L 90.785156 246.277344 C 93.421875 243.636719 96.832031 242.316406 100.238281 242.316406 Z M 341.414062 254.375 C 337.722656 254.433594 334.773438 257.46875 334.824219 261.160156 C 334.824219 272.335938 325.910156 281.25 314.734375 281.25 C 305.679688 281.121094 305.679688 294.769531 314.734375 294.644531 C 325.910156 294.644531 334.824219 303.558594 334.824219 314.734375 C 334.695312 323.789062 348.34375 323.789062 348.214844 314.734375 C 348.214844 303.558594 357.132812 294.644531 368.304688 294.644531 C 372.375 294.644531 375 291.433594 375 287.945312 C 375 284.460938 372.304688 281.25 368.304688 281.25 C 357.132812 281.25 348.214844 272.335938 348.214844 261.160156 C 348.285156 257.386719 345.191406 254.3125 341.414062 254.375 Z M 220.878906 281.160156 C 217.1875 281.21875 214.234375 284.253906 214.285156 287.945312 C 214.285156 299.121094 205.371094 308.035156 194.199219 308.035156 C 185.140625 307.910156 185.140625 321.558594 194.199219 321.429688 C 205.371094 321.429688 214.285156 330.34375 214.285156 341.519531 C 214.160156 350.574219 227.808594 350.574219 227.679688 341.519531 C 227.679688 330.34375 236.59375 321.429688 247.769531 321.429688 C 256.824219 321.558594 256.824219 307.90625 247.769531 308.035156 C 236.59375 308.035156 227.679688 299.121094 227.679688 287.945312 C 227.746094 284.171875 224.652344 281.101562 220.878906 281.160156 Z M 341.519531 281.25 C 343.488281 283.898438 345.570312 285.976562 348.214844 287.945312 C 345.570312 289.914062 343.488281 291.996094 341.519531 294.644531 C 339.550781 291.996094 337.46875 289.914062 334.824219 287.945312 C 337.46875 285.976562 339.550781 283.898438 341.519531 281.25 Z M 220.984375 308.035156 C 222.953125 310.683594 225.03125 312.761719 227.679688 314.730469 C 225.03125 316.703125 222.953125 318.78125 220.984375 321.429688 C 219.015625 318.78125 216.933594 316.703125 214.285156 314.730469 C 216.933594 312.761719 219.015625 310.683594 220.984375 308.035156 Z M 26.890625 310.273438 L 64.664062 348.082031 L 57.222656 355.539062 C 49.148438 363.625 36.246094 363.625 28.171875 355.539062 L 19.476562 346.828125 C 11.386719 338.722656 11.386719 325.804688 19.476562 317.699219 Z M 26.890625 310.273438 " fill-opacity="1" fill-rule="nonzero"/></svg>